G04 MADE WITH FRITZING*
G04 WWW.FRITZING.ORG*
G04 DOUBLE SIDED*
G04 HOLES PLATED*
G04 CONTOUR ON CENTER OF CONTOUR VECTOR*
%ASAXBY*%
%FSLAX23Y23*%
%MOIN*%
%OFA0B0*%
%SFA1.0B1.0*%
%ADD10C,0.075000*%
%ADD11C,0.157480*%
%ADD12C,0.074000*%
%ADD13C,0.082000*%
%ADD14C,0.070000*%
%ADD15C,0.070925*%
%ADD16C,0.070866*%
%ADD17R,0.082000X0.082000*%
%ADD18R,0.075000X0.075000*%
%ADD19C,0.100000*%
%ADD20C,0.024000*%
%ADD21C,0.048000*%
%ADD22C,0.032000*%
%ADD23R,0.001000X0.001000*%
%LNCOPPER1*%
G90*
G70*
G54D10*
X2693Y1088D03*
X2693Y688D03*
X2831Y1082D03*
X2831Y682D03*
G54D11*
X331Y4034D03*
X331Y3719D03*
X331Y4684D03*
X331Y4369D03*
X331Y2735D03*
X331Y2420D03*
X331Y3385D03*
X331Y3070D03*
X331Y2086D03*
X331Y1771D03*
X331Y1436D03*
X331Y1121D03*
X3382Y373D03*
X2968Y373D03*
G54D12*
X3835Y1413D03*
X3835Y1513D03*
X3835Y1613D03*
X3835Y1713D03*
X3835Y1813D03*
X3835Y1913D03*
G54D13*
X3123Y1042D03*
X3223Y1042D03*
X3323Y1042D03*
G54D14*
X3124Y806D03*
X3224Y806D03*
X3223Y1259D03*
X3323Y1259D03*
X3835Y2103D03*
X3835Y2204D03*
X3835Y2300D03*
X3835Y2400D03*
G54D10*
X1060Y4759D03*
X566Y4759D03*
X561Y4298D03*
X1122Y4536D03*
X1060Y4303D03*
X1060Y4109D03*
X566Y4109D03*
X561Y3648D03*
X1122Y3886D03*
X1060Y3653D03*
X1060Y3459D03*
X566Y3459D03*
X561Y2998D03*
X1122Y3236D03*
X1060Y3003D03*
X1060Y2159D03*
X566Y2159D03*
X561Y1698D03*
X1122Y1936D03*
X1060Y1703D03*
X1060Y1509D03*
X566Y1509D03*
X561Y1048D03*
X1122Y1286D03*
X1060Y1053D03*
X1060Y2809D03*
X566Y2809D03*
X561Y2348D03*
X1122Y2586D03*
X1060Y2353D03*
X2210Y1209D03*
X2610Y1209D03*
X2210Y3809D03*
X2610Y3809D03*
X2210Y4459D03*
X2610Y4459D03*
X2210Y1859D03*
X2610Y1859D03*
X2210Y3159D03*
X2610Y3159D03*
X2210Y2509D03*
X2610Y2509D03*
X1860Y1109D03*
X1860Y1209D03*
X1860Y1309D03*
X1860Y4359D03*
X1860Y4459D03*
X1860Y4559D03*
X1860Y3709D03*
X1860Y3809D03*
X1860Y3909D03*
X1860Y3059D03*
X1860Y3159D03*
X1860Y3259D03*
X1860Y2409D03*
X1860Y2509D03*
X1860Y2609D03*
X1860Y1759D03*
X1860Y1859D03*
X1860Y1959D03*
G54D15*
X4071Y2164D03*
G54D16*
X4071Y2357D03*
G54D13*
X1460Y1409D03*
X1460Y1111D03*
X1460Y4659D03*
X1460Y4361D03*
X1460Y4009D03*
X1460Y3711D03*
X1460Y2059D03*
X1460Y1761D03*
X1460Y2709D03*
X1460Y2411D03*
X1460Y3359D03*
X1460Y3061D03*
G54D10*
X3410Y1409D03*
X3110Y1409D03*
X3410Y1509D03*
X3110Y1509D03*
X3410Y1609D03*
X3110Y1609D03*
X3410Y1709D03*
X3110Y1709D03*
X3410Y1809D03*
X3110Y1809D03*
X3410Y1909D03*
X3110Y1909D03*
X3410Y2009D03*
X3110Y2009D03*
X3410Y2109D03*
X3110Y2109D03*
X3410Y2209D03*
X3110Y2209D03*
X3410Y2309D03*
X3110Y2309D03*
X3410Y2409D03*
X3110Y2409D03*
X3410Y2509D03*
X3110Y2509D03*
X3410Y2609D03*
X3110Y2609D03*
X3410Y2709D03*
X3110Y2709D03*
G54D17*
X3123Y1042D03*
G54D18*
X1060Y4759D03*
X1060Y4109D03*
X1060Y3459D03*
X1060Y2159D03*
X1060Y1509D03*
X1060Y2809D03*
G54D17*
X1460Y1410D03*
X1460Y4660D03*
X1460Y4010D03*
X1460Y2060D03*
X1460Y2710D03*
X1460Y3360D03*
G54D18*
X3410Y1409D03*
G54D19*
X369Y4377D02*
X1105Y4533D01*
D02*
X369Y1129D02*
X1105Y1283D01*
D02*
X369Y1779D02*
X1105Y1933D01*
D02*
X369Y2428D02*
X1105Y2583D01*
D02*
X369Y3078D02*
X1105Y3233D01*
G54D20*
D02*
X2813Y1082D02*
X2710Y1087D01*
D02*
X2830Y1395D02*
X3093Y1408D01*
D02*
X2831Y1099D02*
X2830Y1395D01*
D02*
X2830Y372D02*
X2929Y373D01*
D02*
X2831Y664D02*
X2830Y372D01*
G54D21*
D02*
X3126Y372D02*
X3124Y791D01*
D02*
X3008Y373D02*
X3126Y372D01*
G54D19*
D02*
X368Y3397D02*
X549Y3454D01*
D02*
X368Y2747D02*
X549Y2804D01*
D02*
X368Y2097D02*
X549Y2154D01*
D02*
X368Y1448D02*
X549Y1504D01*
D02*
X368Y4696D02*
X549Y4753D01*
D02*
X368Y4046D02*
X549Y4103D01*
G54D20*
D02*
X4072Y2301D02*
X4071Y2342D01*
D02*
X4072Y2204D02*
X4071Y2180D01*
D02*
X3850Y2204D02*
X4072Y2204D01*
D02*
X3850Y2300D02*
X4072Y2301D01*
D02*
X3428Y2109D02*
X3820Y2104D01*
D02*
X3428Y2209D02*
X3820Y2204D01*
D02*
X3820Y2301D02*
X3428Y2308D01*
D02*
X3815Y1813D02*
X3428Y1809D01*
D02*
X3815Y1713D02*
X3428Y1709D01*
G54D22*
D02*
X3599Y1514D02*
X3815Y1513D01*
D02*
X3599Y1259D02*
X3599Y1514D01*
D02*
X3338Y1259D02*
X3599Y1259D01*
G54D21*
D02*
X3323Y1244D02*
X3323Y1063D01*
D02*
X3124Y821D02*
X3123Y1021D01*
D02*
X3322Y2205D02*
X3128Y2208D01*
D02*
X3322Y2005D02*
X3322Y2205D01*
D02*
X3110Y2126D02*
X3110Y2191D01*
D02*
X3322Y2005D02*
X3393Y2008D01*
G54D20*
D02*
X1878Y4459D02*
X2193Y4459D01*
D02*
X1587Y3718D02*
X1843Y3709D01*
D02*
X1481Y3712D02*
X1587Y3718D01*
D02*
X1481Y3061D02*
X1843Y3059D01*
D02*
X1481Y2411D02*
X1843Y2409D01*
D02*
X1481Y1761D02*
X1843Y1759D01*
D02*
X1481Y1111D02*
X1843Y1109D01*
D02*
X1878Y1209D02*
X2193Y1209D01*
D02*
X1878Y1859D02*
X2193Y1859D01*
D02*
X1878Y2509D02*
X2193Y2509D01*
D02*
X1878Y3159D02*
X2193Y3159D01*
D02*
X1878Y3809D02*
X2193Y3809D01*
G54D22*
D02*
X1077Y1505D02*
X1440Y1414D01*
D02*
X1077Y4306D02*
X1439Y4358D01*
D02*
X1077Y3656D02*
X1439Y3708D01*
D02*
X1077Y3006D02*
X1439Y3058D01*
D02*
X1077Y2356D02*
X1439Y2408D01*
D02*
X1077Y1706D02*
X1439Y1758D01*
D02*
X1077Y1056D02*
X1439Y1108D01*
G54D20*
D02*
X1481Y4361D02*
X1843Y4359D01*
G54D22*
D02*
X1440Y4664D02*
X1077Y4755D01*
D02*
X1440Y4014D02*
X1077Y4105D01*
D02*
X1440Y3364D02*
X1077Y3455D01*
D02*
X1440Y2714D02*
X1077Y2805D01*
D02*
X1440Y2064D02*
X1077Y2155D01*
G54D20*
D02*
X3409Y4460D02*
X2628Y4459D01*
D02*
X3410Y2726D02*
X3409Y4460D01*
D02*
X2709Y3809D02*
X2709Y2711D01*
D02*
X2709Y2711D02*
X3093Y2709D01*
D02*
X2628Y3809D02*
X2709Y3809D01*
D02*
X2608Y2610D02*
X2610Y3141D01*
D02*
X3093Y2609D02*
X2608Y2610D01*
D02*
X2709Y1208D02*
X2628Y1209D01*
D02*
X2709Y2307D02*
X2709Y1208D01*
D02*
X3093Y2309D02*
X2709Y2307D01*
D02*
X2608Y2408D02*
X2610Y1876D01*
D02*
X3093Y2409D02*
X2608Y2408D01*
D02*
X3093Y2509D02*
X2628Y2509D01*
G54D19*
D02*
X1105Y3883D02*
X369Y3728D01*
G54D23*
X3317Y2029D02*
X3326Y2029D01*
X3314Y2028D02*
X3329Y2028D01*
X3312Y2027D02*
X3332Y2027D01*
X3310Y2026D02*
X3333Y2026D01*
X3308Y2025D02*
X3335Y2025D01*
X3307Y2024D02*
X3336Y2024D01*
X3306Y2023D02*
X3338Y2023D01*
X3305Y2022D02*
X3339Y2022D01*
X3304Y2021D02*
X3339Y2021D01*
X3303Y2020D02*
X3340Y2020D01*
X3302Y2019D02*
X3341Y2019D01*
X3302Y2018D02*
X3342Y2018D01*
X3301Y2017D02*
X3342Y2017D01*
X3301Y2016D02*
X3343Y2016D01*
X3300Y2015D02*
X3343Y2015D01*
X3300Y2014D02*
X3344Y2014D01*
X3300Y2013D02*
X3344Y2013D01*
X3299Y2012D02*
X3344Y2012D01*
X3299Y2011D02*
X3344Y2011D01*
X3299Y2010D02*
X3345Y2010D01*
X3298Y2009D02*
X3345Y2009D01*
X3298Y2008D02*
X3345Y2008D01*
X3298Y2007D02*
X3345Y2007D01*
X3298Y2006D02*
X3345Y2006D01*
X3298Y2005D02*
X3345Y2005D01*
X3298Y2004D02*
X3345Y2004D01*
X3298Y2003D02*
X3345Y2003D01*
X3298Y2002D02*
X3345Y2002D01*
X3298Y2001D02*
X3345Y2001D01*
X3298Y2000D02*
X3345Y2000D01*
X3298Y1999D02*
X3345Y1999D01*
X3298Y1998D02*
X3345Y1998D01*
X3298Y1997D02*
X3345Y1997D01*
X3298Y1996D02*
X3345Y1996D01*
X3298Y1995D02*
X3345Y1995D01*
X3298Y1994D02*
X3345Y1994D01*
X3298Y1993D02*
X3345Y1993D01*
X3298Y1992D02*
X3345Y1992D01*
X3298Y1991D02*
X3345Y1991D01*
X3298Y1990D02*
X3345Y1990D01*
X3298Y1989D02*
X3345Y1989D01*
X3298Y1988D02*
X3345Y1988D01*
X3298Y1987D02*
X3345Y1987D01*
X3298Y1986D02*
X3345Y1986D01*
X3298Y1985D02*
X3345Y1985D01*
X3298Y1984D02*
X3345Y1984D01*
X3298Y1983D02*
X3345Y1983D01*
X3298Y1982D02*
X3345Y1982D01*
X3298Y1981D02*
X3345Y1981D01*
X3298Y1980D02*
X3345Y1980D01*
X3298Y1979D02*
X3345Y1979D01*
X3298Y1978D02*
X3345Y1978D01*
X3298Y1977D02*
X3345Y1977D01*
X3298Y1976D02*
X3345Y1976D01*
X3298Y1975D02*
X3345Y1975D01*
X3298Y1974D02*
X3345Y1974D01*
X3298Y1973D02*
X3345Y1973D01*
X3298Y1972D02*
X3345Y1972D01*
X3298Y1971D02*
X3345Y1971D01*
X3298Y1970D02*
X3345Y1970D01*
X3298Y1969D02*
X3345Y1969D01*
X3298Y1968D02*
X3345Y1968D01*
X3298Y1967D02*
X3345Y1967D01*
X3298Y1966D02*
X3345Y1966D01*
X3298Y1965D02*
X3345Y1965D01*
X3298Y1964D02*
X3345Y1964D01*
X3298Y1963D02*
X3345Y1963D01*
X3298Y1962D02*
X3345Y1962D01*
X3298Y1961D02*
X3345Y1961D01*
X3298Y1960D02*
X3345Y1960D01*
X3298Y1959D02*
X3345Y1959D01*
X3298Y1958D02*
X3345Y1958D01*
X3298Y1957D02*
X3345Y1957D01*
X3298Y1956D02*
X3345Y1956D01*
X3298Y1955D02*
X3345Y1955D01*
X3298Y1954D02*
X3345Y1954D01*
X3298Y1953D02*
X3345Y1953D01*
X3298Y1952D02*
X3345Y1952D01*
X3298Y1951D02*
X3345Y1951D01*
X3298Y1950D02*
X3345Y1950D01*
X3298Y1949D02*
X3345Y1949D01*
X3298Y1948D02*
X3345Y1948D01*
X3298Y1947D02*
X3345Y1947D01*
X3298Y1946D02*
X3345Y1946D01*
X3298Y1945D02*
X3345Y1945D01*
X3298Y1944D02*
X3345Y1944D01*
X3298Y1943D02*
X3345Y1943D01*
X3298Y1942D02*
X3345Y1942D01*
X3298Y1941D02*
X3345Y1941D01*
X3298Y1940D02*
X3345Y1940D01*
X3298Y1939D02*
X3345Y1939D01*
X3298Y1938D02*
X3345Y1938D01*
X3298Y1937D02*
X3345Y1937D01*
X3298Y1936D02*
X3345Y1936D01*
X3298Y1935D02*
X3345Y1935D01*
X3298Y1934D02*
X3345Y1934D01*
X3298Y1933D02*
X3345Y1933D01*
X3298Y1932D02*
X3345Y1932D01*
X3298Y1931D02*
X3345Y1931D01*
X3298Y1930D02*
X3345Y1930D01*
X3298Y1929D02*
X3345Y1929D01*
X3298Y1928D02*
X3345Y1928D01*
X3298Y1927D02*
X3345Y1927D01*
X3298Y1926D02*
X3345Y1926D01*
X3298Y1925D02*
X3345Y1925D01*
X3298Y1924D02*
X3345Y1924D01*
X3298Y1923D02*
X3345Y1923D01*
X3298Y1922D02*
X3345Y1922D01*
X3298Y1921D02*
X3345Y1921D01*
X3298Y1920D02*
X3345Y1920D01*
X3298Y1919D02*
X3345Y1919D01*
X3298Y1918D02*
X3345Y1918D01*
X3298Y1917D02*
X3345Y1917D01*
X3298Y1916D02*
X3345Y1916D01*
X3298Y1915D02*
X3345Y1915D01*
X3298Y1914D02*
X3345Y1914D01*
X3298Y1913D02*
X3345Y1913D01*
X3298Y1912D02*
X3345Y1912D01*
X3298Y1911D02*
X3345Y1911D01*
X3298Y1910D02*
X3345Y1910D01*
X3298Y1909D02*
X3345Y1909D01*
X3298Y1908D02*
X3345Y1908D01*
X3298Y1907D02*
X3345Y1907D01*
X3298Y1906D02*
X3345Y1906D01*
X3298Y1905D02*
X3345Y1905D01*
X3298Y1904D02*
X3345Y1904D01*
X3298Y1903D02*
X3345Y1903D01*
X3298Y1902D02*
X3345Y1902D01*
X3298Y1901D02*
X3345Y1901D01*
X3298Y1900D02*
X3345Y1900D01*
X3298Y1899D02*
X3345Y1899D01*
X3298Y1898D02*
X3345Y1898D01*
X3298Y1897D02*
X3345Y1897D01*
X3298Y1896D02*
X3345Y1896D01*
X3298Y1895D02*
X3345Y1895D01*
X3298Y1894D02*
X3345Y1894D01*
X3298Y1893D02*
X3345Y1893D01*
X3298Y1892D02*
X3345Y1892D01*
X3298Y1891D02*
X3345Y1891D01*
X3298Y1890D02*
X3345Y1890D01*
X3298Y1889D02*
X3345Y1889D01*
X3298Y1888D02*
X3345Y1888D01*
X3298Y1887D02*
X3345Y1887D01*
X3298Y1886D02*
X3345Y1886D01*
X3298Y1885D02*
X3345Y1885D01*
X3298Y1884D02*
X3345Y1884D01*
X3298Y1883D02*
X3345Y1883D01*
X3298Y1882D02*
X3345Y1882D01*
X3298Y1881D02*
X3345Y1881D01*
X3298Y1880D02*
X3345Y1880D01*
X3298Y1879D02*
X3345Y1879D01*
X3298Y1878D02*
X3345Y1878D01*
X3298Y1877D02*
X3345Y1877D01*
X3298Y1876D02*
X3345Y1876D01*
X3298Y1875D02*
X3345Y1875D01*
X3298Y1874D02*
X3345Y1874D01*
X3298Y1873D02*
X3345Y1873D01*
X3298Y1872D02*
X3345Y1872D01*
X3298Y1871D02*
X3345Y1871D01*
X3298Y1870D02*
X3345Y1870D01*
X3298Y1869D02*
X3345Y1869D01*
X3298Y1868D02*
X3345Y1868D01*
X3298Y1867D02*
X3345Y1867D01*
X3298Y1866D02*
X3345Y1866D01*
X3298Y1865D02*
X3345Y1865D01*
X3298Y1864D02*
X3345Y1864D01*
X3298Y1863D02*
X3345Y1863D01*
X3298Y1862D02*
X3345Y1862D01*
X3298Y1861D02*
X3345Y1861D01*
X3298Y1860D02*
X3345Y1860D01*
X3298Y1859D02*
X3345Y1859D01*
X3298Y1858D02*
X3345Y1858D01*
X3298Y1857D02*
X3345Y1857D01*
X3298Y1856D02*
X3345Y1856D01*
X3298Y1855D02*
X3345Y1855D01*
X3298Y1854D02*
X3345Y1854D01*
X3298Y1853D02*
X3345Y1853D01*
X3298Y1852D02*
X3345Y1852D01*
X3298Y1851D02*
X3345Y1851D01*
X3298Y1850D02*
X3345Y1850D01*
X3298Y1849D02*
X3345Y1849D01*
X3298Y1848D02*
X3345Y1848D01*
X3298Y1847D02*
X3345Y1847D01*
X3298Y1846D02*
X3345Y1846D01*
X3298Y1845D02*
X3345Y1845D01*
X3298Y1844D02*
X3345Y1844D01*
X3298Y1843D02*
X3345Y1843D01*
X3298Y1842D02*
X3345Y1842D01*
X3298Y1841D02*
X3345Y1841D01*
X3298Y1840D02*
X3345Y1840D01*
X3298Y1839D02*
X3345Y1839D01*
X3298Y1838D02*
X3345Y1838D01*
X3298Y1837D02*
X3345Y1837D01*
X3298Y1836D02*
X3345Y1836D01*
X3298Y1835D02*
X3345Y1835D01*
X3298Y1834D02*
X3345Y1834D01*
X3298Y1833D02*
X3345Y1833D01*
X3298Y1832D02*
X3345Y1832D01*
X3298Y1831D02*
X3345Y1831D01*
X3298Y1830D02*
X3345Y1830D01*
X3298Y1829D02*
X3345Y1829D01*
X3298Y1828D02*
X3345Y1828D01*
X3298Y1827D02*
X3345Y1827D01*
X3298Y1826D02*
X3345Y1826D01*
X3298Y1825D02*
X3345Y1825D01*
X3298Y1824D02*
X3345Y1824D01*
X3298Y1823D02*
X3345Y1823D01*
X3298Y1822D02*
X3345Y1822D01*
X3298Y1821D02*
X3345Y1821D01*
X3298Y1820D02*
X3345Y1820D01*
X3298Y1819D02*
X3345Y1819D01*
X3298Y1818D02*
X3345Y1818D01*
X3298Y1817D02*
X3345Y1817D01*
X3298Y1816D02*
X3345Y1816D01*
X3298Y1815D02*
X3345Y1815D01*
X3298Y1814D02*
X3345Y1814D01*
X3298Y1813D02*
X3345Y1813D01*
X3298Y1812D02*
X3345Y1812D01*
X3298Y1811D02*
X3345Y1811D01*
X3298Y1810D02*
X3345Y1810D01*
X3298Y1809D02*
X3345Y1809D01*
X3298Y1808D02*
X3345Y1808D01*
X3298Y1807D02*
X3345Y1807D01*
X3298Y1806D02*
X3345Y1806D01*
X3298Y1805D02*
X3345Y1805D01*
X3298Y1804D02*
X3345Y1804D01*
X3298Y1803D02*
X3345Y1803D01*
X3299Y1802D02*
X3345Y1802D01*
X3299Y1801D02*
X3345Y1801D01*
X3299Y1800D02*
X3345Y1800D01*
X3299Y1799D02*
X3345Y1799D01*
X3299Y1798D02*
X3346Y1798D01*
X3299Y1797D02*
X3346Y1797D01*
X3299Y1796D02*
X3346Y1796D01*
X3299Y1795D02*
X3346Y1795D01*
X3299Y1794D02*
X3346Y1794D01*
X3299Y1793D02*
X3346Y1793D01*
X3299Y1792D02*
X3346Y1792D01*
X3299Y1791D02*
X3346Y1791D01*
X3299Y1790D02*
X3346Y1790D01*
X3299Y1789D02*
X3346Y1789D01*
X3299Y1788D02*
X3346Y1788D01*
X3299Y1787D02*
X3346Y1787D01*
X3299Y1786D02*
X3346Y1786D01*
X3299Y1785D02*
X3346Y1785D01*
X3299Y1784D02*
X3346Y1784D01*
X3299Y1783D02*
X3346Y1783D01*
X3299Y1782D02*
X3346Y1782D01*
X3299Y1781D02*
X3346Y1781D01*
X3299Y1780D02*
X3346Y1780D01*
X3299Y1779D02*
X3346Y1779D01*
X3299Y1778D02*
X3346Y1778D01*
X3299Y1777D02*
X3346Y1777D01*
X3299Y1776D02*
X3346Y1776D01*
X3299Y1775D02*
X3346Y1775D01*
X3299Y1774D02*
X3346Y1774D01*
X3299Y1773D02*
X3346Y1773D01*
X3299Y1772D02*
X3346Y1772D01*
X3299Y1771D02*
X3346Y1771D01*
X3299Y1770D02*
X3346Y1770D01*
X3299Y1769D02*
X3346Y1769D01*
X3299Y1768D02*
X3346Y1768D01*
X3299Y1767D02*
X3346Y1767D01*
X3299Y1766D02*
X3346Y1766D01*
X3299Y1765D02*
X3346Y1765D01*
X3299Y1764D02*
X3346Y1764D01*
X3299Y1763D02*
X3346Y1763D01*
X3299Y1762D02*
X3346Y1762D01*
X3299Y1761D02*
X3346Y1761D01*
X3299Y1760D02*
X3346Y1760D01*
X3299Y1759D02*
X3346Y1759D01*
X3299Y1758D02*
X3346Y1758D01*
X3299Y1757D02*
X3346Y1757D01*
X3299Y1756D02*
X3346Y1756D01*
X3299Y1755D02*
X3346Y1755D01*
X3299Y1754D02*
X3346Y1754D01*
X3299Y1753D02*
X3346Y1753D01*
X3299Y1752D02*
X3346Y1752D01*
X3299Y1751D02*
X3346Y1751D01*
X3299Y1750D02*
X3346Y1750D01*
X3299Y1749D02*
X3346Y1749D01*
X3299Y1748D02*
X3346Y1748D01*
X3299Y1747D02*
X3346Y1747D01*
X3299Y1746D02*
X3346Y1746D01*
X3299Y1745D02*
X3346Y1745D01*
X3299Y1744D02*
X3346Y1744D01*
X3299Y1743D02*
X3346Y1743D01*
X3299Y1742D02*
X3346Y1742D01*
X3299Y1741D02*
X3346Y1741D01*
X3299Y1740D02*
X3346Y1740D01*
X3299Y1739D02*
X3346Y1739D01*
X3299Y1738D02*
X3346Y1738D01*
X3299Y1737D02*
X3346Y1737D01*
X3299Y1736D02*
X3346Y1736D01*
X3299Y1735D02*
X3346Y1735D01*
X3299Y1734D02*
X3346Y1734D01*
X3299Y1733D02*
X3346Y1733D01*
X3299Y1732D02*
X3346Y1732D01*
X3299Y1731D02*
X3346Y1731D01*
X3299Y1730D02*
X3346Y1730D01*
X3299Y1729D02*
X3346Y1729D01*
X3299Y1728D02*
X3346Y1728D01*
X3299Y1727D02*
X3346Y1727D01*
X3299Y1726D02*
X3346Y1726D01*
X3299Y1725D02*
X3346Y1725D01*
X3299Y1724D02*
X3346Y1724D01*
X3299Y1723D02*
X3346Y1723D01*
X3299Y1722D02*
X3346Y1722D01*
X3299Y1721D02*
X3346Y1721D01*
X3299Y1720D02*
X3346Y1720D01*
X3299Y1719D02*
X3346Y1719D01*
X3299Y1718D02*
X3346Y1718D01*
X3299Y1717D02*
X3346Y1717D01*
X3299Y1716D02*
X3346Y1716D01*
X3299Y1715D02*
X3346Y1715D01*
X3299Y1714D02*
X3346Y1714D01*
X3299Y1713D02*
X3346Y1713D01*
X3299Y1712D02*
X3346Y1712D01*
X3299Y1711D02*
X3346Y1711D01*
X3299Y1710D02*
X3346Y1710D01*
X3299Y1709D02*
X3346Y1709D01*
X3299Y1708D02*
X3346Y1708D01*
X3299Y1707D02*
X3346Y1707D01*
X3299Y1706D02*
X3346Y1706D01*
X3299Y1705D02*
X3346Y1705D01*
X3299Y1704D02*
X3346Y1704D01*
X3299Y1703D02*
X3346Y1703D01*
X3299Y1702D02*
X3346Y1702D01*
X3299Y1701D02*
X3346Y1701D01*
X3299Y1700D02*
X3346Y1700D01*
X3299Y1699D02*
X3346Y1699D01*
X3299Y1698D02*
X3346Y1698D01*
X3299Y1697D02*
X3346Y1697D01*
X3299Y1696D02*
X3346Y1696D01*
X3299Y1695D02*
X3346Y1695D01*
X3299Y1694D02*
X3346Y1694D01*
X3299Y1693D02*
X3346Y1693D01*
X3299Y1692D02*
X3346Y1692D01*
X3299Y1691D02*
X3346Y1691D01*
X3299Y1690D02*
X3346Y1690D01*
X3299Y1689D02*
X3346Y1689D01*
X3299Y1688D02*
X3346Y1688D01*
X3299Y1687D02*
X3346Y1687D01*
X3299Y1686D02*
X3346Y1686D01*
X3299Y1685D02*
X3346Y1685D01*
X3299Y1684D02*
X3346Y1684D01*
X3299Y1683D02*
X3346Y1683D01*
X3299Y1682D02*
X3346Y1682D01*
X3299Y1681D02*
X3346Y1681D01*
X3299Y1680D02*
X3346Y1680D01*
X3299Y1679D02*
X3346Y1679D01*
X3299Y1678D02*
X3346Y1678D01*
X3299Y1677D02*
X3346Y1677D01*
X3299Y1676D02*
X3346Y1676D01*
X3299Y1675D02*
X3346Y1675D01*
X3299Y1674D02*
X3346Y1674D01*
X3299Y1673D02*
X3346Y1673D01*
X3299Y1672D02*
X3346Y1672D01*
X3299Y1671D02*
X3346Y1671D01*
X3299Y1670D02*
X3346Y1670D01*
X3299Y1669D02*
X3346Y1669D01*
X3299Y1668D02*
X3346Y1668D01*
X3299Y1667D02*
X3346Y1667D01*
X3299Y1666D02*
X3346Y1666D01*
X3299Y1665D02*
X3346Y1665D01*
X3299Y1664D02*
X3346Y1664D01*
X3299Y1663D02*
X3346Y1663D01*
X3299Y1662D02*
X3346Y1662D01*
X3299Y1661D02*
X3346Y1661D01*
X3299Y1660D02*
X3346Y1660D01*
X3299Y1659D02*
X3346Y1659D01*
X3299Y1658D02*
X3346Y1658D01*
X3299Y1657D02*
X3346Y1657D01*
X3299Y1656D02*
X3346Y1656D01*
X3299Y1655D02*
X3346Y1655D01*
X3299Y1654D02*
X3346Y1654D01*
X3299Y1653D02*
X3346Y1653D01*
X3299Y1652D02*
X3346Y1652D01*
X3299Y1651D02*
X3346Y1651D01*
X3299Y1650D02*
X3346Y1650D01*
X3299Y1649D02*
X3346Y1649D01*
X3299Y1648D02*
X3346Y1648D01*
X3299Y1647D02*
X3346Y1647D01*
X3299Y1646D02*
X3346Y1646D01*
X3299Y1645D02*
X3346Y1645D01*
X3299Y1644D02*
X3346Y1644D01*
X3299Y1643D02*
X3346Y1643D01*
X3299Y1642D02*
X3346Y1642D01*
X3299Y1641D02*
X3346Y1641D01*
X3299Y1640D02*
X3346Y1640D01*
X3299Y1639D02*
X3346Y1639D01*
X3299Y1638D02*
X3346Y1638D01*
X3299Y1637D02*
X3346Y1637D01*
X3299Y1636D02*
X3346Y1636D01*
X3299Y1635D02*
X3346Y1635D01*
X3299Y1634D02*
X3346Y1634D01*
X3299Y1633D02*
X3346Y1633D01*
X3299Y1632D02*
X3346Y1632D01*
X3299Y1631D02*
X3346Y1631D01*
X3299Y1630D02*
X3346Y1630D01*
X3299Y1629D02*
X3346Y1629D01*
X3299Y1628D02*
X3346Y1628D01*
X3299Y1627D02*
X3346Y1627D01*
X3299Y1626D02*
X3346Y1626D01*
X3299Y1625D02*
X3346Y1625D01*
X3299Y1624D02*
X3346Y1624D01*
X3299Y1623D02*
X3346Y1623D01*
X3299Y1622D02*
X3346Y1622D01*
X3299Y1621D02*
X3346Y1621D01*
X3299Y1620D02*
X3346Y1620D01*
X3299Y1619D02*
X3346Y1619D01*
X3299Y1618D02*
X3346Y1618D01*
X3299Y1617D02*
X3346Y1617D01*
X3299Y1616D02*
X3346Y1616D01*
X3299Y1615D02*
X3346Y1615D01*
X3299Y1614D02*
X3346Y1614D01*
X3299Y1613D02*
X3346Y1613D01*
X3299Y1612D02*
X3346Y1612D01*
X3299Y1611D02*
X3346Y1611D01*
X3299Y1610D02*
X3346Y1610D01*
X3299Y1609D02*
X3346Y1609D01*
X3299Y1608D02*
X3346Y1608D01*
X3299Y1607D02*
X3346Y1607D01*
X3299Y1606D02*
X3346Y1606D01*
X3299Y1605D02*
X3346Y1605D01*
X3299Y1604D02*
X3346Y1604D01*
X3299Y1603D02*
X3346Y1603D01*
X3299Y1602D02*
X3346Y1602D01*
X3299Y1601D02*
X3346Y1601D01*
X3299Y1600D02*
X3346Y1600D01*
X3299Y1599D02*
X3346Y1599D01*
X3299Y1598D02*
X3346Y1598D01*
X3299Y1597D02*
X3346Y1597D01*
X3299Y1596D02*
X3346Y1596D01*
X3299Y1595D02*
X3346Y1595D01*
X3299Y1594D02*
X3346Y1594D01*
X3299Y1593D02*
X3346Y1593D01*
X3299Y1592D02*
X3346Y1592D01*
X3299Y1591D02*
X3346Y1591D01*
X3299Y1590D02*
X3346Y1590D01*
X3299Y1589D02*
X3346Y1589D01*
X3299Y1588D02*
X3346Y1588D01*
X3299Y1587D02*
X3346Y1587D01*
X3299Y1586D02*
X3346Y1586D01*
X3299Y1585D02*
X3346Y1585D01*
X3299Y1584D02*
X3346Y1584D01*
X3299Y1583D02*
X3346Y1583D01*
X3299Y1582D02*
X3346Y1582D01*
X3299Y1581D02*
X3346Y1581D01*
X3299Y1580D02*
X3346Y1580D01*
X3299Y1579D02*
X3346Y1579D01*
X3299Y1578D02*
X3346Y1578D01*
X3299Y1577D02*
X3346Y1577D01*
X3299Y1576D02*
X3346Y1576D01*
X3299Y1575D02*
X3346Y1575D01*
X3299Y1574D02*
X3346Y1574D01*
X3299Y1573D02*
X3346Y1573D01*
X3299Y1572D02*
X3346Y1572D01*
X3299Y1571D02*
X3346Y1571D01*
X3299Y1570D02*
X3346Y1570D01*
X3299Y1569D02*
X3346Y1569D01*
X3299Y1568D02*
X3346Y1568D01*
X3299Y1567D02*
X3346Y1567D01*
X3299Y1566D02*
X3346Y1566D01*
X3299Y1565D02*
X3346Y1565D01*
X3299Y1564D02*
X3346Y1564D01*
X3299Y1563D02*
X3346Y1563D01*
X3299Y1562D02*
X3346Y1562D01*
X3299Y1561D02*
X3346Y1561D01*
X3299Y1560D02*
X3346Y1560D01*
X3299Y1559D02*
X3346Y1559D01*
X3299Y1558D02*
X3346Y1558D01*
X3299Y1557D02*
X3346Y1557D01*
X3299Y1556D02*
X3346Y1556D01*
X3299Y1555D02*
X3346Y1555D01*
X3299Y1554D02*
X3346Y1554D01*
X3299Y1553D02*
X3346Y1553D01*
X3299Y1552D02*
X3346Y1552D01*
X3299Y1551D02*
X3346Y1551D01*
X3299Y1550D02*
X3346Y1550D01*
X3299Y1549D02*
X3346Y1549D01*
X3299Y1548D02*
X3346Y1548D01*
X3299Y1547D02*
X3346Y1547D01*
X3299Y1546D02*
X3346Y1546D01*
X3299Y1545D02*
X3346Y1545D01*
X3299Y1544D02*
X3346Y1544D01*
X3299Y1543D02*
X3346Y1543D01*
X3299Y1542D02*
X3346Y1542D01*
X3299Y1541D02*
X3346Y1541D01*
X3299Y1540D02*
X3346Y1540D01*
X3299Y1539D02*
X3346Y1539D01*
X3299Y1538D02*
X3346Y1538D01*
X3299Y1537D02*
X3346Y1537D01*
X3299Y1536D02*
X3346Y1536D01*
X3299Y1535D02*
X3346Y1535D01*
X3299Y1534D02*
X3346Y1534D01*
X3299Y1533D02*
X3346Y1533D01*
X3299Y1532D02*
X3346Y1532D01*
X3299Y1531D02*
X3346Y1531D01*
X3299Y1530D02*
X3346Y1530D01*
X3299Y1529D02*
X3346Y1529D01*
X3299Y1528D02*
X3346Y1528D01*
X3299Y1527D02*
X3346Y1527D01*
X3299Y1526D02*
X3346Y1526D01*
X3299Y1525D02*
X3346Y1525D01*
X3299Y1524D02*
X3346Y1524D01*
X3299Y1523D02*
X3346Y1523D01*
X3299Y1522D02*
X3346Y1522D01*
X3299Y1521D02*
X3346Y1521D01*
X3299Y1520D02*
X3346Y1520D01*
X3299Y1519D02*
X3346Y1519D01*
X3299Y1518D02*
X3346Y1518D01*
X3299Y1517D02*
X3346Y1517D01*
X3299Y1516D02*
X3346Y1516D01*
X3299Y1515D02*
X3346Y1515D01*
X3299Y1514D02*
X3346Y1514D01*
X3299Y1513D02*
X3346Y1513D01*
X3299Y1512D02*
X3346Y1512D01*
X3299Y1511D02*
X3346Y1511D01*
X3299Y1510D02*
X3346Y1510D01*
X3299Y1509D02*
X3346Y1509D01*
X3299Y1508D02*
X3346Y1508D01*
X3299Y1507D02*
X3346Y1507D01*
X3299Y1506D02*
X3346Y1506D01*
X3299Y1505D02*
X3346Y1505D01*
X3299Y1504D02*
X3346Y1504D01*
X3299Y1503D02*
X3346Y1503D01*
X3299Y1502D02*
X3346Y1502D01*
X3299Y1501D02*
X3346Y1501D01*
X3299Y1500D02*
X3346Y1500D01*
X3299Y1499D02*
X3346Y1499D01*
X3299Y1498D02*
X3346Y1498D01*
X3299Y1497D02*
X3346Y1497D01*
X3299Y1496D02*
X3346Y1496D01*
X3299Y1495D02*
X3346Y1495D01*
X3299Y1494D02*
X3346Y1494D01*
X3299Y1493D02*
X3346Y1493D01*
X3299Y1492D02*
X3346Y1492D01*
X3299Y1491D02*
X3346Y1491D01*
X3299Y1490D02*
X3346Y1490D01*
X3299Y1489D02*
X3346Y1489D01*
X3299Y1488D02*
X3346Y1488D01*
X3299Y1487D02*
X3346Y1487D01*
X3299Y1486D02*
X3346Y1486D01*
X3299Y1485D02*
X3346Y1485D01*
X3299Y1484D02*
X3346Y1484D01*
X3299Y1483D02*
X3346Y1483D01*
X3299Y1482D02*
X3346Y1482D01*
X3299Y1481D02*
X3346Y1481D01*
X3299Y1480D02*
X3346Y1480D01*
X3299Y1479D02*
X3346Y1479D01*
X3299Y1478D02*
X3346Y1478D01*
X3299Y1477D02*
X3346Y1477D01*
X3299Y1476D02*
X3346Y1476D01*
X3299Y1475D02*
X3346Y1475D01*
X3299Y1474D02*
X3346Y1474D01*
X3299Y1473D02*
X3346Y1473D01*
X3299Y1472D02*
X3346Y1472D01*
X3299Y1471D02*
X3346Y1471D01*
X3299Y1470D02*
X3346Y1470D01*
X3299Y1469D02*
X3346Y1469D01*
X3299Y1468D02*
X3346Y1468D01*
X3299Y1467D02*
X3346Y1467D01*
X3299Y1466D02*
X3346Y1466D01*
X3299Y1465D02*
X3346Y1465D01*
X3299Y1464D02*
X3346Y1464D01*
X3299Y1463D02*
X3346Y1463D01*
X3299Y1462D02*
X3346Y1462D01*
X3299Y1461D02*
X3346Y1461D01*
X3299Y1460D02*
X3346Y1460D01*
X3299Y1459D02*
X3346Y1459D01*
X3299Y1458D02*
X3346Y1458D01*
X3299Y1457D02*
X3346Y1457D01*
X3299Y1456D02*
X3346Y1456D01*
X3299Y1455D02*
X3346Y1455D01*
X3299Y1454D02*
X3346Y1454D01*
X3299Y1453D02*
X3346Y1453D01*
X3299Y1452D02*
X3346Y1452D01*
X3299Y1451D02*
X3346Y1451D01*
X3299Y1450D02*
X3346Y1450D01*
X3299Y1449D02*
X3346Y1449D01*
X3299Y1448D02*
X3346Y1448D01*
X3299Y1447D02*
X3346Y1447D01*
X3299Y1446D02*
X3346Y1446D01*
X3299Y1445D02*
X3346Y1445D01*
X3299Y1444D02*
X3346Y1444D01*
X3299Y1443D02*
X3346Y1443D01*
X3299Y1442D02*
X3346Y1442D01*
X3299Y1441D02*
X3346Y1441D01*
X3299Y1440D02*
X3346Y1440D01*
X3299Y1439D02*
X3346Y1439D01*
X3299Y1438D02*
X3346Y1438D01*
X3299Y1437D02*
X3346Y1437D01*
X3299Y1436D02*
X3346Y1436D01*
X3299Y1435D02*
X3346Y1435D01*
X3299Y1434D02*
X3346Y1434D01*
X3299Y1433D02*
X3346Y1433D01*
X3299Y1432D02*
X3346Y1432D01*
X3299Y1431D02*
X3346Y1431D01*
X3299Y1430D02*
X3346Y1430D01*
X3299Y1429D02*
X3346Y1429D01*
X3299Y1428D02*
X3346Y1428D01*
X3299Y1427D02*
X3346Y1427D01*
X3299Y1426D02*
X3346Y1426D01*
X3299Y1425D02*
X3346Y1425D01*
X3299Y1424D02*
X3346Y1424D01*
X3299Y1423D02*
X3346Y1423D01*
X3299Y1422D02*
X3346Y1422D01*
X3299Y1421D02*
X3346Y1421D01*
X3299Y1420D02*
X3346Y1420D01*
X3299Y1419D02*
X3346Y1419D01*
X3299Y1418D02*
X3346Y1418D01*
X3299Y1417D02*
X3346Y1417D01*
X3299Y1416D02*
X3346Y1416D01*
X3299Y1415D02*
X3346Y1415D01*
X3299Y1414D02*
X3346Y1414D01*
X3299Y1413D02*
X3346Y1413D01*
X3299Y1412D02*
X3346Y1412D01*
X3299Y1411D02*
X3346Y1411D01*
X3299Y1410D02*
X3346Y1410D01*
X3299Y1409D02*
X3346Y1409D01*
X3299Y1408D02*
X3346Y1408D01*
X3299Y1407D02*
X3346Y1407D01*
X3299Y1406D02*
X3346Y1406D01*
X3299Y1405D02*
X3346Y1405D01*
X3299Y1404D02*
X3346Y1404D01*
X3299Y1403D02*
X3346Y1403D01*
X3299Y1402D02*
X3346Y1402D01*
X3299Y1401D02*
X3346Y1401D01*
X3299Y1400D02*
X3346Y1400D01*
X3299Y1399D02*
X3346Y1399D01*
X3299Y1398D02*
X3346Y1398D01*
X3299Y1397D02*
X3346Y1397D01*
X3299Y1396D02*
X3346Y1396D01*
X3299Y1395D02*
X3346Y1395D01*
X3299Y1394D02*
X3346Y1394D01*
X3299Y1393D02*
X3346Y1393D01*
X3299Y1392D02*
X3346Y1392D01*
X3299Y1391D02*
X3346Y1391D01*
X3299Y1390D02*
X3346Y1390D01*
X3299Y1389D02*
X3346Y1389D01*
X3299Y1388D02*
X3346Y1388D01*
X3299Y1387D02*
X3346Y1387D01*
X3299Y1386D02*
X3346Y1386D01*
X3299Y1385D02*
X3346Y1385D01*
X3299Y1384D02*
X3346Y1384D01*
X3299Y1383D02*
X3346Y1383D01*
X3299Y1382D02*
X3346Y1382D01*
X3299Y1381D02*
X3346Y1381D01*
X3299Y1380D02*
X3346Y1380D01*
X3299Y1379D02*
X3346Y1379D01*
X3299Y1378D02*
X3346Y1378D01*
X3299Y1377D02*
X3346Y1377D01*
X3299Y1376D02*
X3346Y1376D01*
X3299Y1375D02*
X3346Y1375D01*
X3299Y1374D02*
X3346Y1374D01*
X3299Y1373D02*
X3346Y1373D01*
X3299Y1372D02*
X3346Y1372D01*
X3299Y1371D02*
X3346Y1371D01*
X3299Y1370D02*
X3346Y1370D01*
X3299Y1369D02*
X3346Y1369D01*
X3299Y1368D02*
X3346Y1368D01*
X3299Y1367D02*
X3346Y1367D01*
X3299Y1366D02*
X3346Y1366D01*
X3299Y1365D02*
X3346Y1365D01*
X3299Y1364D02*
X3346Y1364D01*
X3299Y1363D02*
X3346Y1363D01*
X3299Y1362D02*
X3346Y1362D01*
X3299Y1361D02*
X3346Y1361D01*
X3299Y1360D02*
X3346Y1360D01*
X3299Y1359D02*
X3346Y1359D01*
X3299Y1358D02*
X3346Y1358D01*
X3299Y1357D02*
X3346Y1357D01*
X3299Y1356D02*
X3346Y1356D01*
X3299Y1355D02*
X3346Y1355D01*
X3299Y1354D02*
X3346Y1354D01*
X3299Y1353D02*
X3346Y1353D01*
X3299Y1352D02*
X3346Y1352D01*
X3299Y1351D02*
X3346Y1351D01*
X3299Y1350D02*
X3346Y1350D01*
X3299Y1349D02*
X3346Y1349D01*
X3299Y1348D02*
X3346Y1348D01*
X3299Y1347D02*
X3346Y1347D01*
X3299Y1346D02*
X3346Y1346D01*
X3299Y1345D02*
X3346Y1345D01*
X3299Y1344D02*
X3346Y1344D01*
X3299Y1343D02*
X3346Y1343D01*
X3299Y1342D02*
X3346Y1342D01*
X3299Y1341D02*
X3346Y1341D01*
X3299Y1340D02*
X3346Y1340D01*
X3299Y1339D02*
X3346Y1339D01*
X3299Y1338D02*
X3346Y1338D01*
X3299Y1337D02*
X3346Y1337D01*
X3299Y1336D02*
X3346Y1336D01*
X3299Y1335D02*
X3346Y1335D01*
X3299Y1334D02*
X3346Y1334D01*
X3299Y1333D02*
X3346Y1333D01*
X3299Y1332D02*
X3346Y1332D01*
X3299Y1331D02*
X3346Y1331D01*
X3299Y1330D02*
X3346Y1330D01*
X3299Y1329D02*
X3346Y1329D01*
X3299Y1328D02*
X3346Y1328D01*
X3299Y1327D02*
X3346Y1327D01*
X3299Y1326D02*
X3346Y1326D01*
X3299Y1325D02*
X3346Y1325D01*
X3299Y1324D02*
X3346Y1324D01*
X3299Y1323D02*
X3346Y1323D01*
X3299Y1322D02*
X3346Y1322D01*
X3299Y1321D02*
X3346Y1321D01*
X3299Y1320D02*
X3346Y1320D01*
X3299Y1319D02*
X3346Y1319D01*
X3299Y1318D02*
X3346Y1318D01*
X3299Y1317D02*
X3346Y1317D01*
X3299Y1316D02*
X3346Y1316D01*
X3299Y1315D02*
X3346Y1315D01*
X3299Y1314D02*
X3346Y1314D01*
X3299Y1313D02*
X3346Y1313D01*
X3299Y1312D02*
X3346Y1312D01*
X3299Y1311D02*
X3346Y1311D01*
X3299Y1310D02*
X3346Y1310D01*
X3299Y1309D02*
X3346Y1309D01*
X3299Y1308D02*
X3346Y1308D01*
X3299Y1307D02*
X3346Y1307D01*
X3299Y1306D02*
X3346Y1306D01*
X3299Y1305D02*
X3346Y1305D01*
X3299Y1304D02*
X3346Y1304D01*
X3299Y1303D02*
X3346Y1303D01*
X3299Y1302D02*
X3346Y1302D01*
X3299Y1301D02*
X3346Y1301D01*
X3299Y1300D02*
X3346Y1300D01*
X3299Y1299D02*
X3346Y1299D01*
X3299Y1298D02*
X3346Y1298D01*
X3299Y1297D02*
X3346Y1297D01*
X3299Y1296D02*
X3346Y1296D01*
X3299Y1295D02*
X3346Y1295D01*
X3299Y1294D02*
X3346Y1294D01*
X3299Y1293D02*
X3346Y1293D01*
X3299Y1292D02*
X3346Y1292D01*
X3299Y1291D02*
X3346Y1291D01*
X3299Y1290D02*
X3346Y1290D01*
X3299Y1289D02*
X3346Y1289D01*
X3299Y1288D02*
X3346Y1288D01*
X3299Y1287D02*
X3346Y1287D01*
X3299Y1286D02*
X3346Y1286D01*
X3299Y1285D02*
X3346Y1285D01*
X3299Y1284D02*
X3346Y1284D01*
X3299Y1283D02*
X3346Y1283D01*
X3299Y1282D02*
X3346Y1282D01*
X3299Y1281D02*
X3346Y1281D01*
X3299Y1280D02*
X3346Y1280D01*
X3299Y1279D02*
X3346Y1279D01*
X3299Y1278D02*
X3346Y1278D01*
X3299Y1277D02*
X3346Y1277D01*
X3299Y1276D02*
X3346Y1276D01*
X3299Y1275D02*
X3346Y1275D01*
X3299Y1274D02*
X3346Y1274D01*
X3299Y1273D02*
X3346Y1273D01*
X3299Y1272D02*
X3346Y1272D01*
X3299Y1271D02*
X3346Y1271D01*
X3299Y1270D02*
X3346Y1270D01*
X3299Y1269D02*
X3346Y1269D01*
X3299Y1268D02*
X3346Y1268D01*
X3299Y1267D02*
X3346Y1267D01*
X3299Y1266D02*
X3346Y1266D01*
X3299Y1265D02*
X3346Y1265D01*
X3299Y1264D02*
X3346Y1264D01*
X3299Y1263D02*
X3346Y1263D01*
X3299Y1262D02*
X3346Y1262D01*
X3299Y1261D02*
X3346Y1261D01*
X3299Y1260D02*
X3346Y1260D01*
X3299Y1259D02*
X3346Y1259D01*
X3299Y1258D02*
X3346Y1258D01*
X3299Y1257D02*
X3346Y1257D01*
X3300Y1256D02*
X3346Y1256D01*
X3300Y1255D02*
X3346Y1255D01*
X3300Y1254D02*
X3346Y1254D01*
X3300Y1253D02*
X3345Y1253D01*
X3301Y1252D02*
X3345Y1252D01*
X3301Y1251D02*
X3345Y1251D01*
X3301Y1250D02*
X3344Y1250D01*
X3302Y1249D02*
X3344Y1249D01*
X3302Y1248D02*
X3343Y1248D01*
X3303Y1247D02*
X3343Y1247D01*
X3303Y1246D02*
X3342Y1246D01*
X3304Y1245D02*
X3342Y1245D01*
X3305Y1244D02*
X3341Y1244D01*
X3306Y1243D02*
X3340Y1243D01*
X3307Y1242D02*
X3339Y1242D01*
X3308Y1241D02*
X3338Y1241D01*
X3309Y1240D02*
X3337Y1240D01*
X3310Y1239D02*
X3335Y1239D01*
X3312Y1238D02*
X3333Y1238D01*
X3314Y1237D02*
X3331Y1237D01*
X3317Y1236D02*
X3328Y1236D01*
D02*
G04 End of Copper1*
M02*