G04 MADE WITH FRITZING*
G04 WWW.FRITZING.ORG*
G04 DOUBLE SIDED*
G04 HOLES PLATED*
G04 CONTOUR ON CENTER OF CONTOUR VECTOR*
%ASAXBY*%
%FSLAX23Y23*%
%MOIN*%
%OFA0B0*%
%SFA1.0B1.0*%
%ADD10C,0.075000*%
%ADD11C,0.157480*%
%ADD12C,0.074000*%
%ADD13C,0.082000*%
%ADD14C,0.070000*%
%ADD15C,0.070925*%
%ADD16C,0.070866*%
%ADD17R,0.082000X0.082000*%
%ADD18R,0.075000X0.075000*%
%ADD19C,0.048000*%
%ADD20C,0.024000*%
%ADD21C,0.100000*%
%ADD22C,0.032000*%
%LNCOPPER0*%
G90*
G70*
G54D10*
X2693Y1088D03*
X2693Y688D03*
X2831Y1082D03*
X2831Y682D03*
G54D11*
X331Y4034D03*
X331Y3719D03*
X331Y4684D03*
X331Y4369D03*
X331Y2735D03*
X331Y2420D03*
X331Y3385D03*
X331Y3070D03*
X331Y2086D03*
X331Y1771D03*
X331Y1436D03*
X331Y1121D03*
X3382Y373D03*
X2968Y373D03*
G54D12*
X3835Y1413D03*
X3835Y1513D03*
X3835Y1613D03*
X3835Y1713D03*
X3835Y1813D03*
X3835Y1913D03*
G54D13*
X3123Y1042D03*
X3223Y1042D03*
X3323Y1042D03*
G54D14*
X3124Y806D03*
X3224Y806D03*
X3223Y1259D03*
X3323Y1259D03*
X3835Y2103D03*
X3835Y2204D03*
X3835Y2300D03*
X3835Y2400D03*
G54D10*
X1060Y4759D03*
X566Y4759D03*
X561Y4298D03*
X1122Y4536D03*
X1060Y4303D03*
X1060Y4109D03*
X566Y4109D03*
X561Y3648D03*
X1122Y3886D03*
X1060Y3653D03*
X1060Y3459D03*
X566Y3459D03*
X561Y2998D03*
X1122Y3236D03*
X1060Y3003D03*
X1060Y2159D03*
X566Y2159D03*
X561Y1698D03*
X1122Y1936D03*
X1060Y1703D03*
X1060Y1509D03*
X566Y1509D03*
X561Y1048D03*
X1122Y1286D03*
X1060Y1053D03*
X1060Y2809D03*
X566Y2809D03*
X561Y2348D03*
X1122Y2586D03*
X1060Y2353D03*
X2210Y1209D03*
X2610Y1209D03*
X2210Y3809D03*
X2610Y3809D03*
X2210Y4459D03*
X2610Y4459D03*
X2210Y1859D03*
X2610Y1859D03*
X2210Y3159D03*
X2610Y3159D03*
X2210Y2509D03*
X2610Y2509D03*
X1860Y1109D03*
X1860Y1209D03*
X1860Y1309D03*
X1860Y4359D03*
X1860Y4459D03*
X1860Y4559D03*
X1860Y3709D03*
X1860Y3809D03*
X1860Y3909D03*
X1860Y3059D03*
X1860Y3159D03*
X1860Y3259D03*
X1860Y2409D03*
X1860Y2509D03*
X1860Y2609D03*
X1860Y1759D03*
X1860Y1859D03*
X1860Y1959D03*
G54D15*
X4071Y2164D03*
G54D16*
X4071Y2357D03*
G54D13*
X1460Y1409D03*
X1460Y1111D03*
X1460Y4659D03*
X1460Y4361D03*
X1460Y4009D03*
X1460Y3711D03*
X1460Y2059D03*
X1460Y1761D03*
X1460Y2709D03*
X1460Y2411D03*
X1460Y3359D03*
X1460Y3061D03*
G54D10*
X3410Y1409D03*
X3110Y1409D03*
X3410Y1509D03*
X3110Y1509D03*
X3410Y1609D03*
X3110Y1609D03*
X3410Y1709D03*
X3110Y1709D03*
X3410Y1809D03*
X3110Y1809D03*
X3410Y1909D03*
X3110Y1909D03*
X3410Y2009D03*
X3110Y2009D03*
X3410Y2109D03*
X3110Y2109D03*
X3410Y2209D03*
X3110Y2209D03*
X3410Y2309D03*
X3110Y2309D03*
X3410Y2409D03*
X3110Y2409D03*
X3410Y2509D03*
X3110Y2509D03*
X3410Y2609D03*
X3110Y2609D03*
X3410Y2709D03*
X3110Y2709D03*
G54D17*
X3123Y1042D03*
G54D18*
X1060Y4759D03*
X1060Y4109D03*
X1060Y3459D03*
X1060Y2159D03*
X1060Y1509D03*
X1060Y2809D03*
G54D17*
X1460Y1410D03*
X1460Y4660D03*
X1460Y4010D03*
X1460Y2060D03*
X1460Y2710D03*
X1460Y3360D03*
G54D18*
X3410Y1409D03*
G54D19*
X3715Y4744D02*
X3695Y2006D01*
D02*
X3695Y2006D02*
X3428Y2009D01*
D02*
X1078Y4759D02*
X3715Y4744D01*
D02*
X3561Y4547D02*
X3559Y2104D01*
D02*
X3559Y2104D02*
X3428Y2108D01*
D02*
X1878Y4559D02*
X3561Y4547D01*
D02*
X1734Y3912D02*
X1746Y4565D01*
D02*
X1746Y4565D02*
X1843Y4560D01*
D02*
X1843Y3909D02*
X1734Y3912D01*
D02*
X1730Y3269D02*
X1843Y3260D01*
D02*
X1734Y3912D02*
X1730Y3269D01*
D02*
X1710Y2616D02*
X1843Y2610D01*
D02*
X1730Y3269D02*
X1710Y2616D01*
D02*
X1710Y1966D02*
X1843Y1960D01*
D02*
X1710Y2616D02*
X1710Y1966D01*
D02*
X1710Y1316D02*
X1843Y1310D01*
D02*
X1710Y1966D02*
X1710Y1316D01*
D02*
X3382Y806D02*
X3382Y412D01*
D02*
X3239Y806D02*
X3382Y806D01*
G54D20*
D02*
X3222Y509D02*
X2693Y509D01*
D02*
X2693Y509D02*
X2693Y670D01*
D02*
X3224Y791D02*
X3222Y509D01*
G54D21*
D02*
X368Y4696D02*
X549Y4753D01*
D02*
X368Y4046D02*
X549Y4103D01*
D02*
X368Y3397D02*
X549Y3454D01*
D02*
X368Y2747D02*
X549Y2804D01*
D02*
X368Y2097D02*
X549Y2154D01*
D02*
X368Y1448D02*
X549Y1504D01*
G54D22*
D02*
X3952Y2105D02*
X3952Y2401D01*
D02*
X3952Y2401D02*
X3850Y2401D01*
D02*
X3850Y2104D02*
X3952Y2105D01*
D02*
X3952Y1614D02*
X3855Y1613D01*
D02*
X3952Y2105D02*
X3952Y1614D01*
G54D19*
D02*
X963Y2161D02*
X963Y1510D01*
D02*
X963Y1510D02*
X1043Y1509D01*
D02*
X1043Y2159D02*
X963Y2161D01*
D02*
X963Y2806D02*
X1043Y2808D01*
D02*
X963Y2161D02*
X963Y2806D01*
D02*
X963Y3457D02*
X1043Y3458D01*
D02*
X963Y2806D02*
X963Y3457D01*
D02*
X963Y4108D02*
X1043Y4109D01*
D02*
X963Y3457D02*
X963Y4108D01*
D02*
X963Y4759D02*
X1043Y4759D01*
D02*
X963Y4108D02*
X963Y4759D01*
D02*
X3223Y1244D02*
X3223Y1063D01*
D02*
X3225Y2007D02*
X3223Y1274D01*
D02*
X3128Y2008D02*
X3225Y2007D01*
D02*
X3225Y2104D02*
X3393Y2108D01*
D02*
X3225Y2007D02*
X3225Y2104D01*
D02*
X3223Y1021D02*
X3224Y821D01*
G04 End of Copper0*
M02*