; NON-PLATED HOLES START AT T1
; THROUGH (PLATED) HOLES START AT T100
M48
INCH
T100C0.031496
T101C0.078740
T102C0.030000
T103C0.040000
T104C0.035000
T105C0.042000
T106C0.031555
%
T100
X040707Y023573
T101
X033818Y003729
X003306Y030697
X003306Y020855
X003306Y017705
X003306Y037194
X003306Y024201
X003306Y046839
X003306Y027351
X003306Y033847
X029684Y003729
X003306Y040343
X003306Y043690
X003306Y011209
X003306Y014359
T102
X038345Y023003
X038345Y021034
X031241Y008060
X038345Y024004
X032225Y012587
X033227Y012587
X032243Y008060
X038345Y022036
T103
X038345Y019131
X038345Y015131
X038345Y014131
X038345Y018131
X038345Y017131
X038345Y016131
T104
X011216Y038864
X031101Y024087
X031101Y027087
X026928Y006878
X010601Y023532
X010601Y010532
X005661Y015087
X031101Y014087
X034101Y023087
X026101Y044587
X034101Y026087
X034101Y027087
X031101Y023087
X010601Y047587
X010601Y034587
X018601Y017587
X034101Y024087
X026101Y031587
X005608Y016979
X034101Y016087
X026101Y025087
X005661Y041087
X018601Y045587
X018601Y043587
X011216Y025863
X010601Y021587
X011216Y045364
X034101Y022087
X034101Y014087
X031101Y017087
X018601Y044587
X018601Y037087
X011216Y012864
X005608Y029979
X018601Y039087
X026928Y010878
X005661Y047587
X010601Y015087
X034101Y021087
X018601Y025087
X031101Y022087
X031101Y019087
X034101Y019087
X010601Y028087
X005661Y034587
X031101Y016087
X018601Y013087
X018601Y011087
X026101Y012087
X005661Y028087
X010601Y036532
X031101Y021087
X018601Y012087
X034101Y018087
X005608Y042979
X005661Y021587
X028306Y010816
X022101Y018587
X005608Y023479
X022101Y031587
X026101Y018587
X011216Y032363
X026101Y038087
X031101Y025087
X031101Y018087
X034101Y017087
X010601Y043032
X018601Y038087
X011216Y019364
X018601Y019587
X028306Y006815
X034101Y015087
X022101Y038087
X005608Y036479
X018601Y018587
X018601Y026087
X022101Y012087
X022101Y025087
X010601Y017032
X018601Y030587
X018601Y031587
X018601Y024087
X031101Y026087
X018601Y032587
X034101Y025087
X010601Y030032
X031101Y015087
X031101Y020087
X034101Y020087
X022101Y044587
X010601Y041087
X005608Y010479
T105
X033227Y010422
X014601Y027087
X014601Y033587
X014601Y040087
X014601Y043607
X014601Y024107
X014601Y020587
X014601Y037107
X014601Y030607
X014601Y011107
X031227Y010422
X014601Y017607
X014601Y014087
X014601Y046587
X032227Y010422
T106
X040707Y021642
T00
M30
